<?xml version="1.0" encoding="UTF-8"?>
<svg id="Camada_1" xmlns="http://www.w3.org/2000/svg" version="1.1" viewBox="0 0 595.28 841.89">
  <!-- Generator: Adobe Illustrator 29.1.0, SVG Export Plug-In . SVG Version: 2.1.0 Build 142)  -->
  <defs>
    <style>
      .st0, .st1, .st2 {
        fill: #fff;
      }

      .st3 {
        fill: #e51e2e;
      }

      .st4, .st5, .st6, .st7 {
        fill: none;
      }

      .st8 {
        fill: #dc2138;
      }

      .st1 {
        font-size: 20px;
      }

      .st1, .st2 {
        font-family: NSimSun, NSimSun;
      }

      .st2 {
        font-size: 40px;
      }

      .st5 {
        stroke-width: 4px;
      }

      .st5, .st6, .st7 {
        stroke: #fff;
        stroke-miterlimit: 10;
      }

      .st6 {
        stroke-width: 3px;
      }

      .st7 {
        stroke-width: 2px;
      }

      .st9 {
        fill: #f4f4f4;
      }
    </style>
  </defs>
  <path class="st3" d="M351.08,408.93c-1.31-2.03-6.99-10.33-18.1-13.53-7.49-2.16-13.75-.94-16.55-.21,2.39-5.76,4.78-11.52,7.17-17.28,1.23-.74,8.75-5.07,18.15-2.4,7.9,2.24,14.15,8.58,16.37,16.48-2.34,5.65-4.68,11.3-7.03,16.94Z"/>
  <path class="st3" d="M316.83,514.8c-6.29,2.88-15.42,6.16-26.43,7.13-15.64,1.38-27.61-2.58-34.37-5.54,10.62-24.81,21.24-49.62,31.86-74.43,20.56-30,31.36-45.75,31.36-45.75,3.56-.15,9.01.1,15.05,2.42,6.4,2.45,10.77,6.2,13.31,8.8,0,0-3.07,18.96-8.8,54.39-7.33,17.66-14.65,35.32-21.98,52.98Z"/>
  <path class="st3" d="M292.36,575.95c-6.67-.21-17.4-1.39-29.35-6.61-10.57-4.62-18.06-10.63-22.68-14.97,3.07-7.87,6.3-15.85,9.7-23.94,2.21-5.27,4.44-10.46,6.69-15.57,0,0,18.17,3.03,31.67,2.13,7.41-.49,18.31-2.49,31.49-9.87-9.17,22.94-18.34,45.89-27.51,68.83Z"/>
  <path class="st8" d="M304.68,545.12s-3.73,5.18-5.15,4.69c-1.53-.53-.44-7.73-.22-8.31,15.6-41.6,31.2-83.2,46.8-124.79-2.43,15.04-4.87,30.08-7.3,45.12h0s-34.13,83.29-34.13,83.3h0Z"/>
  <path class="st0" d="M275.77,552.37c-.44,1.02-3.3,7.93.27,14.95,2.28,4.49,6.61,7.88,9.52,8.26.55.07,3.34.31,6.79.37,0,0,0,0,0,0,0,0,12.32-30.83,12.32-30.83,0,0-1.29-1.16-1.97-1.7,0,0,0,0,0,0-.53-.35-5.71-2.99-11.93-2.05-4.66.7-11.84,3.7-15,11.01Z"/>
  <text class="st1" transform="translate(315.78 416.68) rotate(22.53)"><tspan x="0" y="0">義</tspan></text>
  <line class="st6" x1="286.49" y1="544.14" x2="262.73" y2="495.8"/>
  <g>
    <path class="st0" d="M323.33,434.91l-6.21,5.53-2.03,4.89-1.25-.52,2.03-4.89-.5-8.32,1.31.54.33,6.81,5.01-4.59,1.31.54Z"/>
    <path class="st0" d="M308.65,459.04c-.79-.33-1.41-.75-1.85-1.27-.44-.52-.7-1.11-.76-1.78-.07-.67.06-1.39.38-2.17l1.96-4.72c.32-.78.75-1.38,1.27-1.8.52-.42,1.12-.66,1.8-.71.68-.05,1.41.08,2.2.41.79.33,1.41.75,1.85,1.27.44.52.7,1.11.77,1.78.07.67-.06,1.39-.38,2.17l-1.96,4.72c-.32.77-.74,1.37-1.27,1.8-.52.42-1.12.66-1.8.72-.68.05-1.41-.08-2.21-.41ZM309.12,457.92c.8.33,1.5.37,2.12.11.62-.25,1.09-.77,1.41-1.56l2.01-4.84c.33-.79.36-1.49.11-2.11-.26-.61-.78-1.09-1.58-1.42-.8-.33-1.5-.37-2.12-.12-.62.25-1.09.77-1.42,1.56l-2.01,4.84c-.33.78-.36,1.49-.1,2.1.26.62.79,1.09,1.58,1.42Z"/>
    <path class="st0" d="M302.86,472.88c-.64-.26-1.18-.58-1.62-.96-.44-.38-.77-.82-.98-1.32-.21-.5-.27-1.07-.19-1.7l1.33.08c-.07.71.08,1.29.43,1.75.35.46.84.82,1.47,1.08.84.35,1.55.44,2.13.28.58-.16,1.01-.56,1.28-1.2l.15-.36c.19-.46.22-.88.09-1.24-.13-.37-.36-.71-.68-1.04-.32-.32-.68-.64-1.08-.95-.36-.3-.72-.61-1.07-.91-.36-.31-.66-.64-.91-1-.25-.36-.41-.75-.47-1.18-.07-.43.01-.9.23-1.43l.12-.29c.42-1.01,1.06-1.65,1.92-1.91s1.89-.14,3.09.36c.94.39,1.6.88,2,1.47.4.59.55,1.34.44,2.24l-1.32-.07c.05-.65-.05-1.18-.31-1.59-.25-.41-.67-.73-1.26-.97-.8-.33-1.49-.42-2.06-.27-.57.15-.99.55-1.26,1.2l-.12.29c-.19.45-.2.87-.04,1.24.16.38.44.73.82,1.07.38.34.78.68,1.19,1.02.35.28.69.57,1.01.87.32.3.58.63.8.98s.34.74.39,1.16c.04.42-.04.88-.26,1.39l-.16.39c-.42,1.01-1.06,1.64-1.93,1.9-.87.26-1.92.13-3.16-.39Z"/>
    <path class="st0" d="M293.55,485.11l4.9-11.8,1.24.51-4.9,11.8-1.24-.51ZM296.7,480.24l.46-1.1,5.65,2.34-.46,1.1-5.65-2.34ZM299.63,487.63l4.9-11.8,1.24.51-4.9,11.8-1.24-.51Z"/>
    <path class="st0" d="M296.99,488.94l-4.9,11.8-1.25-.52,4.9-11.8,1.25.52Z"/>
    <path class="st0" d="M285.67,514.46c-.79-.33-1.41-.75-1.85-1.27-.44-.52-.7-1.11-.76-1.78-.07-.67.06-1.39.38-2.17l1.96-4.72c.32-.78.75-1.38,1.27-1.8.52-.42,1.12-.66,1.8-.71.68-.05,1.41.08,2.21.41.79.33,1.41.75,1.85,1.27.44.52.7,1.11.76,1.78.07.67-.06,1.39-.38,2.17l-1.96,4.73c-.32.77-.74,1.37-1.27,1.8-.52.42-1.12.66-1.8.72-.68.06-1.41-.08-2.21-.41ZM286.13,513.34c.8.33,1.5.37,2.12.11.62-.25,1.09-.77,1.41-1.56l2.01-4.84c.33-.79.36-1.49.11-2.11-.26-.61-.78-1.09-1.58-1.42-.8-.33-1.5-.37-2.12-.12-.62.25-1.09.77-1.42,1.56l-2.01,4.84c-.33.78-.36,1.49-.1,2.1.26.62.79,1.09,1.58,1.42Z"/>
  </g>
  <line class="st6" x1="294.18" y1="550.04" x2="348.28" y2="405.64"/>
  <line class="st6" x1="278.21" y1="557.7" x2="246.8" y2="537.65"/>
  <g>
    <path class="st0" d="M245.35,551.41c-.08.11-.12.16-.19.27-.78.58-1.18.87-1.97,1.43-.14-.1-.21-.15-.35-.26.79-.55,1.19-.83,1.97-1.4-.23-.17-.35-.25-.58-.42-.09.12-.14.18-.23.3-.13-.09-.19-.14-.32-.24.18-.23.27-.35.44-.58.49.37.73.55,1.23.9Z"/>
    <path class="st0" d="M244.89,554.36c-.18-.13-.3-.28-.35-.45s-.03-.36.07-.55c0,0,0,0,0,0,.13.09.2.14.33.23,0,0,0,0,0,0-.04.09-.05.17-.03.26.03.08.09.16.18.22.11.07.21.1.32.07.1-.03.2-.1.28-.22.05-.07.08-.11.13-.18.08-.12.12-.23.1-.33-.01-.1-.07-.19-.18-.27-.06-.04-.12-.06-.2-.07s-.15,0-.23.03c-.12-.08-.18-.13-.3-.21.32-.45.49-.68.81-1.13.47.33.7.49,1.17.81-.08.12-.12.17-.2.29-.34-.23-.51-.35-.86-.59-.14.19-.21.29-.34.49.06,0,.12,0,.19.02.06.02.12.05.17.08.2.14.32.31.35.5.03.19-.02.4-.17.61-.05.07-.08.11-.13.18-.15.21-.32.34-.51.38-.2.04-.4-.02-.62-.17Z"/>
    <path class="st0" d="M246.76,555.62c-.23-.15-.37-.32-.41-.51-.04-.19,0-.38.13-.57.27-.4.4-.6.67-1,.13-.19.29-.31.48-.35.19-.04.39.02.61.16.22.14.35.31.39.49.04.18,0,.38-.13.57-.26.41-.39.61-.65,1.01-.13.2-.28.32-.47.35-.19.04-.4-.02-.63-.17ZM246.95,555.32c.12.08.23.11.33.09.09-.02.17-.09.24-.19.26-.4.39-.61.65-1.01.07-.1.09-.2.08-.3-.02-.09-.08-.18-.2-.26-.12-.08-.23-.11-.32-.08-.09.02-.17.09-.24.19-.27.4-.4.6-.66,1-.07.1-.1.2-.08.3.02.09.09.18.21.26Z"/>
    <path class="st0" d="M248.93,556.95c.39-.65.59-.97.98-1.62.14.08.2.12.34.21-.39.65-.58.97-.97,1.62-.14-.08-.21-.13-.35-.21ZM249.99,557.59c.23-.4.35-.59.58-.99.07-.12.09-.22.06-.32-.02-.1-.09-.18-.2-.25-.11-.07-.21-.09-.31-.07-.09.02-.17.08-.23.18.06-.13.09-.2.15-.33.11-.07.23-.1.35-.1.12,0,.23.03.33.09.18.11.29.25.33.42.03.18,0,.37-.13.58-.23.4-.34.6-.57.99-.14-.08-.21-.12-.35-.21ZM251.06,558.2c.22-.4.34-.6.56-1,.07-.12.08-.22.06-.32-.03-.1-.1-.18-.22-.25-.11-.06-.21-.08-.3-.05-.09.03-.17.1-.24.21.04-.14.07-.21.11-.36.12-.08.24-.12.36-.13.12,0,.24.02.35.08.19.11.31.25.35.43.04.18,0,.37-.12.59-.22.4-.33.6-.55,1-.14-.08-.21-.12-.36-.2Z"/>
    <path class="st0" d="M253.56,556.56c-.41.76-.61,1.14-1.02,1.91-.02.04-.03.08-.02.11,0,.03.03.06.06.08.07.04.1.05.17.09-.07.12-.1.19-.16.31-.08-.05-.13-.07-.21-.11-.13-.07-.22-.17-.25-.29-.03-.12-.01-.25.06-.39.41-.76.61-1.14,1.02-1.9.14.08.21.11.34.19Z"/>
  </g>
  <path class="st8" d="M336.33,519.68"/>
  <path class="st9" d="M292.36,575.95c-2.27-.12-4.53-.25-6.8-.37,4.5-11.39,8.99-22.79,13.49-34.18.89.35,1.98.87,3.14,1.65,1.04.7,1.87,1.44,2.5,2.08-4.11,10.28-8.22,20.55-12.32,30.83Z"/>
  <path class="st0" d="M313.05,400.27c4.22-1.12,12.52-2.64,21.43.73,8.44,3.19,13.4,9.26,15.79,12.75.84-1.08,1.68-2.15,2.52-3.23-1.61-2.5-7.12-10.35-17.85-14.07-9.39-3.25-17.46-1.5-20.48-.68-.47,1.5-.94,3-1.41,4.51Z"/>
  <line class="st7" x1="346.11" y1="372.35" x2="334.94" y2="396.45"/>
  <line class="st7" x1="358.11" y1="379.13" x2="346.77" y2="403.48"/>
  <line class="st7" x1="332.92" y1="365.58" x2="321.23" y2="395.53"/>
  <text class="st2" transform="translate(166.99 359.52)"><tspan x="0" y="0">義</tspan></text>
  <g>
    <path class="st0" d="M226.16,333.25l-5.41,10.53v7.21h-2.49v-7.21l-5.41-10.53h2.77l3.88,8.01,3.88-8.01h2.77Z"/>
    <path class="st0" d="M233.62,351.18c-1.25,0-2.35-.27-3.28-.81-.94-.54-1.66-1.3-2.18-2.29-.52-.98-.78-2.13-.78-3.44v-5.03c0-1.32.26-2.47.78-3.45.52-.98,1.24-1.74,2.18-2.28.94-.54,2.03-.81,3.28-.81s2.35.27,3.28.81c.94.54,1.66,1.3,2.18,2.28.52.98.78,2.13.78,3.45v5.03c0,1.31-.26,2.46-.78,3.44-.52.98-1.24,1.75-2.18,2.29-.94.54-2.03.81-3.28.81ZM233.62,348.73c1.11,0,2.01-.37,2.68-1.1.67-.73,1.01-1.7,1.01-2.91v-5.2c0-1.21-.34-2.18-1.01-2.91-.67-.73-1.56-1.09-2.68-1.09s-2,.36-2.67,1.09c-.68.73-1.01,1.7-1.01,2.91v5.2c0,1.2.34,2.17,1.01,2.91.68.73,1.57,1.1,2.67,1.1Z"/>
    <path class="st0" d="M248.73,351.18c-.86,0-1.67-.08-2.44-.24-.76-.16-1.47-.41-2.14-.73-.66-.33-1.28-.73-1.86-1.22l1.55-1.9c.68.59,1.42,1.03,2.23,1.32.81.29,1.7.44,2.65.44,1.29,0,2.28-.24,2.99-.72.71-.48,1.06-1.15,1.06-2.01h0c0-.69-.18-1.2-.54-1.56-.36-.36-.83-.62-1.41-.8-.58-.18-1.22-.32-1.91-.43-.67-.11-1.34-.25-2.02-.4-.68-.15-1.3-.4-1.87-.73-.57-.33-1.03-.8-1.37-1.42-.35-.62-.52-1.44-.52-2.48h0c0-1.66.55-2.94,1.65-3.85,1.1-.91,2.65-1.36,4.65-1.36.95,0,1.88.15,2.8.46.91.31,1.8.77,2.66,1.4l-1.42,1.98c-.68-.5-1.35-.88-2.02-1.12-.67-.24-1.34-.37-2.02-.37-1.21,0-2.15.24-2.83.73-.67.48-1.01,1.17-1.01,2.06h0c0,.68.2,1.19.59,1.54.39.35.9.61,1.53.77.63.17,1.31.32,2.03.47.65.13,1.3.29,1.95.47.65.18,1.24.45,1.78.79.53.35.96.82,1.28,1.42.32.6.48,1.39.48,2.36v.02c0,1.64-.57,2.9-1.71,3.8-1.14.9-2.74,1.34-4.81,1.34Z"/>
    <path class="st0" d="M258.54,351v-17.75h2.49v17.75h-2.49ZM260.1,343.44v-2.37h9.85v2.37h-9.85ZM268.63,351v-17.75h2.49v17.75h-2.49Z"/>
    <path class="st0" d="M278,333.25v17.75h-2.49v-17.75h2.49Z"/>
    <path class="st0" d="M288.27,351.18c-1.25,0-2.35-.27-3.28-.81-.94-.54-1.66-1.3-2.18-2.29-.52-.98-.78-2.13-.78-3.44v-5.03c0-1.32.26-2.47.78-3.45.52-.98,1.24-1.74,2.18-2.28.94-.54,2.03-.81,3.28-.81s2.35.27,3.28.81c.94.54,1.66,1.3,2.18,2.28.52.98.78,2.13.78,3.45v5.03c0,1.31-.26,2.46-.78,3.44-.52.98-1.24,1.75-2.18,2.29-.94.54-2.03.81-3.28.81ZM288.27,348.73c1.11,0,2.01-.37,2.68-1.1.67-.73,1.01-1.7,1.01-2.91v-5.2c0-1.21-.34-2.18-1.01-2.91-.67-.73-1.56-1.09-2.68-1.09s-2,.36-2.67,1.09c-.68.73-1.01,1.7-1.01,2.91v5.2c0,1.2.34,2.17,1.01,2.91.68.73,1.57,1.1,2.67,1.1Z"/>
  </g>
  <line class="st5" x1="211.92" y1="359.52" x2="297.64" y2="359.52"/>
  <path class="st4" d="M489.49,673.48c-114.07-45.18-228.14-90.35-342.21-135.53,70.59-68.05,141.18-136.09,211.76-204.14,43.48,113.22,86.96,226.45,130.45,339.67Z"/>
</svg>